<svg height="504pt" viewBox="0 0 504 504" width="504pt" xmlns="http://www.w3.org/2000/svg"><path d="m112 68h-28c-11.046875 0-20 8.953125-20 20v60h400v-60c0-11.046875-8.953125-20-20-20h-28" fill="#ff5252"/><path d="m64 224h400v60h-400zm0 0" fill="#ffd740"/><path d="m140 108c-6.625 0-12-5.375-12-12v-56c0-6.625 5.375-12 12-12s12 5.375 12 12v56c0 6.625-5.375 12-12 12zm0 0" fill="#fff"/><path d="m140 112c-8.824219 0-16-7.175781-16-16v-56c0-8.824219 7.175781-16 16-16s16 7.175781 16 16v56c0 8.824219-7.175781 16-16 16zm0-80c-4.40625 0-8 3.585938-8 8v56c0 4.414062 3.59375 8 8 8s8-3.585938 8-8v-56c0-4.414062-3.59375-8-8-8zm0 0" fill="#263238"/><path d="m264 108c-6.625 0-12-5.375-12-12v-56c0-6.625 5.375-12 12-12s12 5.375 12 12v56c0 6.625-5.375 12-12 12zm0 0" fill="#fff"/><path d="m264 112c-8.824219 0-16-7.175781-16-16v-56c0-8.824219 7.175781-16 16-16s16 7.175781 16 16v56c0 8.824219-7.175781 16-16 16zm0-80c-4.40625 0-8 3.585938-8 8v56c0 4.414062 3.59375 8 8 8 4.414062 0 8-3.585938 8-8v-56c0-4.414062-3.585938-8-8-8zm0 0" fill="#263238"/><path d="m388 108c-6.625 0-12-5.375-12-12v-56c0-6.625 5.375-12 12-12s12 5.375 12 12v56c0 6.625-5.375 12-12 12zm0 0" fill="#fff"/><g fill="#263238"><path d="m388 112c-8.824219 0-16-7.175781-16-16v-56c0-8.824219 7.175781-16 16-16s16 7.175781 16 16v56c0 8.824219-7.175781 16-16 16zm0-80c-4.414062 0-8 3.585938-8 8v56c0 4.414062 3.585938 8 8 8s8-3.585938 8-8v-56c0-4.414062-3.585938-8-8-8zm0 0"/><path d="m236 72h-68c-2.207031 0-4-1.792969-4-4s1.792969-4 4-4h68c2.207031 0 4 1.792969 4 4s-1.792969 4-4 4zm0 0"/><path d="m360 72h-68c-2.207031 0-4-1.792969-4-4s1.792969-4 4-4h68c2.207031 0 4 1.792969 4 4s-1.792969 4-4 4zm0 0"/><path d="m464 152h-400c-2.207031 0-4-1.792969-4-4v-60c0-13.230469 10.769531-24 24-24h28c2.207031 0 4 1.792969 4 4s-1.792969 4-4 4h-28c-8.824219 0-16 7.175781-16 16v56h392v-56c0-8.824219-7.175781-16-16-16h-28c-2.207031 0-4-1.792969-4-4s1.792969-4 4-4h28c13.230469 0 24 10.769531 24 24v60c0 2.207031-1.792969 4-4 4zm0 0"/><path d="m293.144531 424h-209.144531c-13.230469 0-24-10.769531-24-24v-236c0-2.207031 1.792969-4 4-4s4 1.792969 4 4v236c0 8.824219 7.175781 16 16 16h209.144531c2.207031 0 4 1.792969 4 4s-1.792969 4-4 4zm0 0"/><path d="m164 424c-2.207031 0-4-1.792969-4-4v-256c0-2.207031 1.792969-4 4-4s4 1.792969 4 4v256c0 2.207031-1.792969 4-4 4zm0 0"/><path d="m264 424c-2.207031 0-4-1.792969-4-4v-256c0-2.207031 1.792969-4 4-4s4 1.792969 4 4v256c0 2.207031-1.792969 4-4 4zm0 0"/><path d="m364 303.367188c-2.207031 0-4-1.792969-4-4v-135.367188c0-2.207031 1.792969-4 4-4s4 1.792969 4 4v135.367188c0 2.207031-1.792969 4-4 4zm0 0"/><path d="m464 313.425781c-2.207031 0-4-1.792969-4-4v-145.425781c0-2.207031 1.792969-4 4-4s4 1.792969 4 4v145.425781c0 2.207031-1.792969 4-4 4zm0 0"/><path d="m464 228h-400c-2.207031 0-4-1.792969-4-4s1.792969-4 4-4h400c2.207031 0 4 1.792969 4 4s-1.792969 4-4 4zm0 0"/><path d="m464 288h-400c-2.207031 0-4-1.792969-4-4s1.792969-4 4-4h400c2.207031 0 4 1.792969 4 4s-1.792969 4-4 4zm0 0"/><path d="m309.425781 348h-245.425781c-2.207031 0-4-1.792969-4-4s1.792969-4 4-4h245.425781c2.207031 0 4 1.792969 4 4s-1.792969 4-4 4zm0 0"/><path d="m36 80h-32c-2.207031 0-4-1.792969-4-4s1.792969-4 4-4h32c2.207031 0 4 1.792969 4 4s-1.792969 4-4 4zm0 0"/><path d="m20 96c-2.207031 0-4-1.792969-4-4v-32c0-2.207031 1.792969-4 4-4s4 1.792969 4 4v32c0 2.207031-1.792969 4-4 4zm0 0"/><path d="m256 464h-16c-2.207031 0-4-1.792969-4-4s1.792969-4 4-4h16c2.207031 0 4 1.792969 4 4s-1.792969 4-4 4zm0 0"/><path d="m224 464h-120c-2.207031 0-4-1.792969-4-4s1.792969-4 4-4h120c2.207031 0 4 1.792969 4 4s-1.792969 4-4 4zm0 0"/></g><path d="m500 404c0 53.019531-42.980469 96-96 96s-96-42.980469-96-96 42.980469-96 96-96 96 42.980469 96 96zm0 0" fill="#40c4ff"/><path d="m404 504c-55.144531 0-100-44.855469-100-100s44.855469-100 100-100 100 44.855469 100 100-44.855469 100-100 100zm0-192c-50.726562 0-92 41.273438-92 92s41.273438 92 92 92 92-41.273438 92-92-41.273438-92-92-92zm0 0" fill="#263238"/><path d="m476 404c0 39.765625-32.234375 72-72 72s-72-32.234375-72-72 32.234375-72 72-72 72 32.234375 72 72zm0 0" fill="#fff"/><path d="m404 480c-41.902344 0-76-34.097656-76-76s34.097656-76 76-76 76 34.097656 76 76-34.097656 76-76 76zm0-144c-37.496094 0-68 30.503906-68 68s30.503906 68 68 68 68-30.503906 68-68-30.503906-68-68-68zm0 0" fill="#263238"/><path d="m404 416h-40c-2.207031 0-4-1.792969-4-4s1.792969-4 4-4h36v-44c0-2.207031 1.792969-4 4-4s4 1.792969 4 4v48c0 2.207031-1.792969 4-4 4zm0 0" fill="#263238"/><path d="m88 24h-32c-2.207031 0-4-1.792969-4-4s1.792969-4 4-4h32c2.207031 0 4 1.792969 4 4s-1.792969 4-4 4zm0 0" fill="#263238"/><path d="m72 40c-2.207031 0-4-1.792969-4-4v-32c0-2.207031 1.792969-4 4-4s4 1.792969 4 4v32c0 2.207031-1.792969 4-4 4zm0 0" fill="#263238"/></svg>